<svg xmlns="http://www.w3.org/2000/svg" viewBox="0 0 420 420" width="420" height="420"><defs><radialGradient id="b"><stop offset="0" stop-color="#b08a5a" stop-opacity=".07"/><stop offset="1" stop-color="#b08a5a" stop-opacity="0"/></radialGradient></defs><ellipse cx="96" cy="310" rx="120" ry="96" fill="url(#b)"/><ellipse cx="330" cy="90" rx="90" ry="70" fill="url(#b)"/><g fill="none" stroke-linecap="round"><path d="M276.5,53.7Q273.5,50.5 269.3,51.8" stroke="#a3825a" stroke-opacity="0.2" stroke-width="0.9"/><path d="M119.8,223Q124.2,226.4 123.3,231.8" stroke="#a3825a" stroke-opacity="0.2" stroke-width="1"/><path d="M391.4,373Q398.1,379.3 402.1,387.7" stroke="#2a3150" stroke-opacity="0.12" stroke-width="0.6"/><path d="M77.6,317Q85.4,317.5 87.7,325" stroke="#2a3150" stroke-opacity="0.12" stroke-width="0.9"/><path d="M283,184.3Q276.7,194.6 264.6,193.9" stroke="#2a3150" stroke-opacity="0.12" stroke-width="1"/><path d="M216.5,61.6Q219.3,58.5 223.4,57.6" stroke="#a3825a" stroke-opacity="0.2" stroke-width="1"/><path d="M218.5,31.2Q212.7,21.6 202.9,16.1" stroke="#8c6a45" stroke-opacity="0.24" stroke-width="0.8"/><path d="M268.2,296.6Q266.8,289.6 263.1,283.6" stroke="#a3825a" stroke-opacity="0.2" stroke-width="0.8"/><path d="M89.9,258.8Q80.6,253.3 69.8,254.4" stroke="#a3825a" stroke-opacity="0.2" stroke-width="0.7"/><path d="M306.7,177.3Q303.2,181.3 303,186.6" stroke="#a3825a" stroke-opacity="0.2" stroke-width="0.6"/><path d="M392.2,5.5Q388.3,3.7 384.1,2.9" stroke="#a3825a" stroke-opacity="0.2" stroke-width="0.7"/><path d="M392.2,425.5Q388.3,423.7 384.1,422.9" stroke="#a3825a" stroke-opacity="0.2" stroke-width="0.7"/><path d="M64.3,43.6Q68.5,35 75.8,28.7" stroke="#8c6a45" stroke-opacity="0.24" stroke-width="0.7"/><path d="M115.3,15.2Q126,17.2 136.7,15.4" stroke="#a3825a" stroke-opacity="0.2" stroke-width="0.6"/><path d="M115.3,435.2Q126,437.2 136.7,435.4" stroke="#a3825a" stroke-opacity="0.2" stroke-width="0.6"/><path d="M321.7,62.5Q333.9,61.6 339.8,72.2" stroke="#8c6a45" stroke-opacity="0.24" stroke-width="0.7"/><path d="M371.7,321.1Q367.3,316.6 363.1,312" stroke="#2a3150" stroke-opacity="0.12" stroke-width="1"/><path d="M120.7,304.2Q128.6,300.7 128.6,292.1" stroke="#a3825a" stroke-opacity="0.2" stroke-width="0.8"/><path d="M205.5,127.3Q194.2,125.8 184.2,131.1" stroke="#8c6a45" stroke-opacity="0.24" stroke-width="0.6"/><path d="M172.9,313Q168.9,305.5 162.9,299.3" stroke="#8c6a45" stroke-opacity="0.24" stroke-width="1.1"/><path d="M19.6,77.1Q28.6,77.4 30.9,86.2" stroke="#2a3150" stroke-opacity="0.12" stroke-width="0.5"/><path d="M117.2,265.1Q115.9,276.6 107.4,284.5" stroke="#2a3150" stroke-opacity="0.12" stroke-width="1"/><path d="M108.9,112Q99,107.5 88.2,107.1" stroke="#2a3150" stroke-opacity="0.12" stroke-width="0.9"/><path d="M194.2,405.6Q189.8,409.7 184.2,411.9" stroke="#8c6a45" stroke-opacity="0.24" stroke-width="1.1"/><path d="M181.7,146.1Q176.5,140.5 175.8,132.9" stroke="#a3825a" stroke-opacity="0.2" stroke-width="0.8"/><path d="M389.5,203.9Q386.1,210.6 381.7,216.7" stroke="#2a3150" stroke-opacity="0.12" stroke-width="0.8"/><path d="M412.3,54.4Q414.1,50.7 415.2,46.8" stroke="#2a3150" stroke-opacity="0.12" stroke-width="1"/><path d="M-7.7,54.4Q-5.9,50.7 -4.8,46.8" stroke="#2a3150" stroke-opacity="0.12" stroke-width="1"/><path d="M167,358.1Q173.5,357.7 179.6,355.3" stroke="#2a3150" stroke-opacity="0.12" stroke-width="0.9"/><path d="M289.7,108.4Q295.5,98.4 306.9,100.9" stroke="#a3825a" stroke-opacity="0.2" stroke-width="0.6"/><path d="M337.6,155.5Q328.3,156.8 319.3,154.2" stroke="#2a3150" stroke-opacity="0.12" stroke-width="0.5"/><path d="M82.6,168.7Q79.3,163.7 76.5,158.5" stroke="#a3825a" stroke-opacity="0.2" stroke-width="0.8"/><path d="M124.6,347.8Q127.2,345.4 128.8,342.2" stroke="#8c6a45" stroke-opacity="0.24" stroke-width="1"/><path d="M12.4,259Q18.2,249 14,238.1" stroke="#2a3150" stroke-opacity="0.12" stroke-width="0.9"/><path d="M432.4,259Q438.2,249 434,238.1" stroke="#2a3150" stroke-opacity="0.12" stroke-width="0.9"/><path d="M323.4,85.8Q316.3,79.7 318.5,70.6" stroke="#2a3150" stroke-opacity="0.12" stroke-width="0.9"/><path d="M121.4,117.5Q126.9,117.3 132,119" stroke="#a3825a" stroke-opacity="0.2" stroke-width="0.8"/><path d="M165.7,230.2Q170.7,233.8 168.6,239.5" stroke="#2a3150" stroke-opacity="0.12" stroke-width="1"/><path d="M387.2,111.5Q393.9,105.1 401.9,100.4" stroke="#a3825a" stroke-opacity="0.2" stroke-width="0.5"/><path d="M325.8,172.9Q325.6,163.6 317.6,159" stroke="#2a3150" stroke-opacity="0.12" stroke-width="0.9"/><path d="M303,228.7Q303,237.5 310,242.8" stroke="#2a3150" stroke-opacity="0.12" stroke-width="0.6"/><path d="M372.2,9.5Q367.9,-0.9 371.8,-11.5" stroke="#8c6a45" stroke-opacity="0.24" stroke-width="0.9"/><path d="M372.2,429.5Q367.9,419.1 371.8,408.5" stroke="#8c6a45" stroke-opacity="0.24" stroke-width="0.9"/><path d="M379.8,144.8Q374.8,146.1 369.6,146.5" stroke="#a3825a" stroke-opacity="0.2" stroke-width="1"/><path d="M405,196.2Q400.1,203.4 402.6,211.7" stroke="#a3825a" stroke-opacity="0.2" stroke-width="0.9"/><path d="M-15,196.2Q-19.9,203.4 -17.4,211.7" stroke="#a3825a" stroke-opacity="0.2" stroke-width="0.9"/><path d="M407.9,417.5Q403.3,419.1 403.3,424.1" stroke="#2a3150" stroke-opacity="0.12" stroke-width="0.7"/><path d="M407.9,-2.5Q403.3,-0.9 403.3,4.1" stroke="#2a3150" stroke-opacity="0.12" stroke-width="0.7"/><path d="M324.4,326Q324.7,330.9 328.4,334.2" stroke="#2a3150" stroke-opacity="0.12" stroke-width="1"/><path d="M131.7,90.7Q134,84.4 140.2,81.9" stroke="#8c6a45" stroke-opacity="0.24" stroke-width="1.1"/><path d="M55.2,68.8Q51.7,71.7 47.5,73.5" stroke="#2a3150" stroke-opacity="0.12" stroke-width="0.7"/><path d="M276.1,402.9Q273.4,406.9 268.8,408" stroke="#a3825a" stroke-opacity="0.2" stroke-width="1"/><path d="M230.1,320.7Q230.5,315.6 228.4,310.9" stroke="#8c6a45" stroke-opacity="0.24" stroke-width="0.7"/><path d="M318,150Q322.8,149.7 324.5,154.2" stroke="#2a3150" stroke-opacity="0.12" stroke-width="1"/><path d="M321.5,344.5Q325.7,353.5 328.7,363.1" stroke="#8c6a45" stroke-opacity="0.24" stroke-width="1"/><path d="M112.5,45.8Q118.1,45.8 120.6,40.8" stroke="#8c6a45" stroke-opacity="0.24" stroke-width="0.9"/><path d="M311.9,124.2Q314.8,122.3 318.3,121.9" stroke="#2a3150" stroke-opacity="0.12" stroke-width="0.5"/><path d="M244.7,297.9Q241.6,291.9 245.6,286.5" stroke="#8c6a45" stroke-opacity="0.24" stroke-width="0.7"/><path d="M259,244.7Q269.2,253.2 263.8,265.4" stroke="#8c6a45" stroke-opacity="0.24" stroke-width="1"/><path d="M107.7,56.7Q110.1,64.6 117.5,68.2" stroke="#8c6a45" stroke-opacity="0.24" stroke-width="0.7"/><path d="M269.8,268.9Q270.4,272.2 268.6,274.9" stroke="#8c6a45" stroke-opacity="0.24" stroke-width="0.9"/><path d="M321.1,59.9Q326.1,64.7 332.5,67.5" stroke="#2a3150" stroke-opacity="0.12" stroke-width="0.9"/><path d="M348.2,20.9Q349.9,32.9 339.3,38.7" stroke="#a3825a" stroke-opacity="0.2" stroke-width="0.5"/><path d="M86.4,24.4Q84,28.1 85.5,32.3" stroke="#2a3150" stroke-opacity="0.12" stroke-width="0.7"/><path d="M146.2,235.3Q146.5,238.3 146.3,241.3" stroke="#a3825a" stroke-opacity="0.2" stroke-width="0.8"/><path d="M296.3,373.5Q294.2,369.7 293.2,365.5" stroke="#8c6a45" stroke-opacity="0.24" stroke-width="0.9"/><path d="M162,77.4Q158.8,80.2 154.6,79.9" stroke="#a3825a" stroke-opacity="0.2" stroke-width="1"/><path d="M297.6,196.3Q298,204.6 304.8,209.5" stroke="#a3825a" stroke-opacity="0.2" stroke-width="0.6"/><path d="M49.7,68.8Q59.5,73 67.3,65.9" stroke="#8c6a45" stroke-opacity="0.24" stroke-width="1.1"/><path d="M416.3,46.9Q411.9,45 408.6,41.6" stroke="#a3825a" stroke-opacity="0.2" stroke-width="0.8"/><path d="M-3.7,46.9Q-8.1,45 -11.4,41.6" stroke="#a3825a" stroke-opacity="0.2" stroke-width="0.8"/><path d="M237.8,131.9Q234.8,131.3 232,130.3" stroke="#a3825a" stroke-opacity="0.2" stroke-width="0.8"/><path d="M284.8,305.6Q293.9,310.4 303.6,306.9" stroke="#a3825a" stroke-opacity="0.2" stroke-width="1"/><path d="M86.3,338.4Q95.3,334 94.5,323.9" stroke="#8c6a45" stroke-opacity="0.24" stroke-width="0.6"/><path d="M179.1,151.2Q178.9,140.5 187.1,133.6" stroke="#2a3150" stroke-opacity="0.12" stroke-width="0.5"/><path d="M152.2,197.9Q144.6,195.2 136.5,195.8" stroke="#8c6a45" stroke-opacity="0.24" stroke-width="0.9"/><path d="M383.4,296Q375.2,290.5 370.8,281.7" stroke="#2a3150" stroke-opacity="0.12" stroke-width="0.8"/><path d="M47.5,171.6Q48.3,180.2 44.2,187.7" stroke="#2a3150" stroke-opacity="0.12" stroke-width="1.1"/></g><circle cx="289.4" cy="298.2" r="1.1" fill="#2a3150" fill-opacity="0.12"/><circle cx="47.2" cy="107.6" r="0.8" fill="#6b4b2e" fill-opacity="0.18"/><circle cx="328.4" cy="167.3" r="0.7" fill="#8c6a45" fill-opacity="0.2"/><circle cx="151" cy="364.9" r="0.8" fill="#2a3150" fill-opacity="0.12"/><circle cx="378.1" cy="354.2" r="0.6" fill="#2a3150" fill-opacity="0.12"/><circle cx="36.5" cy="91.1" r="0.6" fill="#6b4b2e" fill-opacity="0.18"/><circle cx="277.9" cy="118.7" r="1.3" fill="#8c6a45" fill-opacity="0.2"/><circle cx="137.4" cy="275.2" r="0.9" fill="#2a3150" fill-opacity="0.12"/><circle cx="119.8" cy="57.3" r="0.4" fill="#6b4b2e" fill-opacity="0.18"/><circle cx="394.6" cy="102.1" r="0.6" fill="#2a3150" fill-opacity="0.12"/><circle cx="412.2" cy="16.2" r="0.9" fill="#8c6a45" fill-opacity="0.2"/><circle cx="90.9" cy="256.3" r="1" fill="#2a3150" fill-opacity="0.12"/><circle cx="117.4" cy="267.8" r="1.1" fill="#6b4b2e" fill-opacity="0.18"/><circle cx="98.8" cy="294.1" r="1.2" fill="#8c6a45" fill-opacity="0.2"/><circle cx="140.8" cy="116.4" r="0.8" fill="#8c6a45" fill-opacity="0.2"/><circle cx="220.4" cy="201.2" r="0.6" fill="#6b4b2e" fill-opacity="0.18"/><circle cx="140.4" cy="104.8" r="0.9" fill="#8c6a45" fill-opacity="0.2"/><circle cx="330.1" cy="349.8" r="1" fill="#2a3150" fill-opacity="0.12"/><circle cx="88.4" cy="52.2" r="0.5" fill="#2a3150" fill-opacity="0.12"/><circle cx="384.2" cy="259.1" r="0.9" fill="#6b4b2e" fill-opacity="0.18"/><circle cx="23.9" cy="65.8" r="1.1" fill="#6b4b2e" fill-opacity="0.18"/><circle cx="69.6" cy="14" r="1.1" fill="#2a3150" fill-opacity="0.12"/><circle cx="86.5" cy="67.6" r="1.1" fill="#2a3150" fill-opacity="0.12"/><circle cx="221.4" cy="169.4" r="0.5" fill="#6b4b2e" fill-opacity="0.18"/><circle cx="85.3" cy="398.1" r="0.9" fill="#6b4b2e" fill-opacity="0.18"/><circle cx="412.2" cy="381.2" r="0.4" fill="#6b4b2e" fill-opacity="0.18"/><circle cx="198.5" cy="184.1" r="1" fill="#6b4b2e" fill-opacity="0.18"/><circle cx="332.8" cy="154.2" r="0.8" fill="#6b4b2e" fill-opacity="0.18"/><circle cx="314.3" cy="246.6" r="0.9" fill="#6b4b2e" fill-opacity="0.18"/><circle cx="222.8" cy="18" r="0.7" fill="#8c6a45" fill-opacity="0.2"/><circle cx="304.3" cy="23" r="0.5" fill="#6b4b2e" fill-opacity="0.18"/><circle cx="63.8" cy="166" r="0.8" fill="#8c6a45" fill-opacity="0.2"/><circle cx="358.1" cy="230.7" r="0.6" fill="#2a3150" fill-opacity="0.12"/><circle cx="10.3" cy="114.9" r="1.3" fill="#8c6a45" fill-opacity="0.2"/><circle cx="56.3" cy="138.1" r="0.9" fill="#8c6a45" fill-opacity="0.2"/><circle cx="84.5" cy="108.6" r="0.8" fill="#2a3150" fill-opacity="0.12"/><circle cx="164.4" cy="102.4" r="1" fill="#6b4b2e" fill-opacity="0.18"/><circle cx="396.1" cy="323.5" r="0.8" fill="#8c6a45" fill-opacity="0.2"/><circle cx="182.9" cy="149.7" r="0.9" fill="#2a3150" fill-opacity="0.12"/><circle cx="6.9" cy="73.8" r="0.5" fill="#8c6a45" fill-opacity="0.2"/><circle cx="80.5" cy="27.3" r="1" fill="#8c6a45" fill-opacity="0.2"/><circle cx="256.4" cy="333.4" r="1.1" fill="#6b4b2e" fill-opacity="0.18"/><circle cx="171.2" cy="408.9" r="0.5" fill="#8c6a45" fill-opacity="0.2"/><circle cx="330.1" cy="61.5" r="0.9" fill="#6b4b2e" fill-opacity="0.18"/><circle cx="120.8" cy="132.1" r="0.8" fill="#2a3150" fill-opacity="0.12"/><circle cx="353.6" cy="245.7" r="1.1" fill="#6b4b2e" fill-opacity="0.18"/><circle cx="148.8" cy="214.2" r="1.2" fill="#6b4b2e" fill-opacity="0.18"/><circle cx="207.6" cy="188.6" r="1" fill="#8c6a45" fill-opacity="0.2"/><circle cx="328.3" cy="147.2" r="0.9" fill="#8c6a45" fill-opacity="0.2"/><circle cx="222" cy="403.1" r="0.4" fill="#2a3150" fill-opacity="0.12"/><circle cx="254.7" cy="396.2" r="0.6" fill="#2a3150" fill-opacity="0.12"/><circle cx="210.6" cy="105.9" r="1" fill="#8c6a45" fill-opacity="0.2"/><circle cx="295.1" cy="311.2" r="0.6" fill="#6b4b2e" fill-opacity="0.18"/><circle cx="12.6" cy="135.7" r="1.1" fill="#8c6a45" fill-opacity="0.2"/><circle cx="314.3" cy="162.6" r="1" fill="#6b4b2e" fill-opacity="0.18"/><circle cx="311.3" cy="1.3" r="0.5" fill="#6b4b2e" fill-opacity="0.18"/><circle cx="410.6" cy="277.5" r="0.8" fill="#8c6a45" fill-opacity="0.2"/><circle cx="371.7" cy="88.1" r="0.9" fill="#6b4b2e" fill-opacity="0.18"/><circle cx="189.3" cy="230.2" r="1.2" fill="#8c6a45" fill-opacity="0.2"/><circle cx="47.3" cy="79.8" r="1" fill="#8c6a45" fill-opacity="0.2"/><circle cx="393.1" cy="12.9" r="0.6" fill="#8c6a45" fill-opacity="0.2"/><circle cx="152.9" cy="332.5" r="1" fill="#8c6a45" fill-opacity="0.2"/><circle cx="403.1" cy="338.7" r="0.4" fill="#8c6a45" fill-opacity="0.2"/><circle cx="315.9" cy="134.2" r="0.8" fill="#6b4b2e" fill-opacity="0.18"/><circle cx="330.7" cy="36.1" r="0.9" fill="#6b4b2e" fill-opacity="0.18"/><circle cx="150" cy="125.6" r="0.6" fill="#6b4b2e" fill-opacity="0.18"/><circle cx="9.5" cy="285.3" r="1.1" fill="#2a3150" fill-opacity="0.12"/><circle cx="416.1" cy="291.6" r="1.2" fill="#6b4b2e" fill-opacity="0.18"/><circle cx="237.4" cy="370.2" r="0.4" fill="#8c6a45" fill-opacity="0.2"/><circle cx="348.2" cy="387.2" r="0.7" fill="#6b4b2e" fill-opacity="0.18"/><circle cx="259.3" cy="73.5" r="0.5" fill="#2a3150" fill-opacity="0.12"/><circle cx="410.1" cy="121.1" r="0.4" fill="#2a3150" fill-opacity="0.12"/><circle cx="341.1" cy="273.8" r="1" fill="#8c6a45" fill-opacity="0.2"/><circle cx="256.7" cy="116.8" r="1.2" fill="#2a3150" fill-opacity="0.12"/><circle cx="136.2" cy="369.6" r="0.6" fill="#2a3150" fill-opacity="0.12"/><circle cx="398.1" cy="71.1" r="1.1" fill="#6b4b2e" fill-opacity="0.18"/><circle cx="235.7" cy="147.4" r="1" fill="#6b4b2e" fill-opacity="0.18"/><circle cx="344.5" cy="333.3" r="0.8" fill="#6b4b2e" fill-opacity="0.18"/><circle cx="201.4" cy="224.9" r="1.1" fill="#8c6a45" fill-opacity="0.2"/><circle cx="294.6" cy="309.6" r="1.2" fill="#2a3150" fill-opacity="0.12"/><circle cx="357.4" cy="226.3" r="0.7" fill="#8c6a45" fill-opacity="0.2"/><circle cx="90.2" cy="228.3" r="0.8" fill="#8c6a45" fill-opacity="0.2"/><circle cx="97.6" cy="240.5" r="0.5" fill="#2a3150" fill-opacity="0.12"/><circle cx="191.2" cy="230" r="1.3" fill="#6b4b2e" fill-opacity="0.18"/><circle cx="383.3" cy="29.2" r="0.5" fill="#2a3150" fill-opacity="0.12"/><circle cx="244.3" cy="307.7" r="0.7" fill="#2a3150" fill-opacity="0.12"/><circle cx="404.9" cy="112" r="1.1" fill="#6b4b2e" fill-opacity="0.18"/><circle cx="1.4" cy="35" r="0.9" fill="#6b4b2e" fill-opacity="0.18"/><circle cx="197.7" cy="330.9" r="1.1" fill="#8c6a45" fill-opacity="0.2"/><circle cx="124.1" cy="366.2" r="0.5" fill="#6b4b2e" fill-opacity="0.18"/><circle cx="118.4" cy="347.6" r="1.1" fill="#fffaf0" fill-opacity="0.55"/><circle cx="382.1" cy="408.3" r="1" fill="#fffaf0" fill-opacity="0.55"/><circle cx="202.4" cy="66.6" r="1.2" fill="#fffaf0" fill-opacity="0.55"/><circle cx="380" cy="0.1" r="1.5" fill="#fffaf0" fill-opacity="0.55"/><circle cx="398.4" cy="65" r="0.7" fill="#fffaf0" fill-opacity="0.55"/><circle cx="349" cy="279" r="1" fill="#fffaf0" fill-opacity="0.55"/><circle cx="91.6" cy="288.1" r="0.8" fill="#fffaf0" fill-opacity="0.55"/><circle cx="410.5" cy="169.7" r="1.1" fill="#fffaf0" fill-opacity="0.55"/><circle cx="44.6" cy="171.2" r="1.5" fill="#fffaf0" fill-opacity="0.55"/><circle cx="337.1" cy="231.2" r="1.3" fill="#fffaf0" fill-opacity="0.55"/><circle cx="102.4" cy="11.3" r="1" fill="#fffaf0" fill-opacity="0.55"/><circle cx="373.5" cy="161.2" r="0.8" fill="#fffaf0" fill-opacity="0.55"/><circle cx="390.4" cy="382.7" r="0.8" fill="#fffaf0" fill-opacity="0.55"/><circle cx="385.9" cy="370.5" r="1.3" fill="#fffaf0" fill-opacity="0.55"/><circle cx="228.1" cy="35.1" r="1.4" fill="#fffaf0" fill-opacity="0.55"/><circle cx="177.7" cy="365.1" r="1.5" fill="#fffaf0" fill-opacity="0.55"/><circle cx="54" cy="66.7" r="1.3" fill="#fffaf0" fill-opacity="0.55"/><circle cx="197.1" cy="358.2" r="0.9" fill="#fffaf0" fill-opacity="0.55"/><circle cx="271" cy="107.7" r="1.6" fill="#fffaf0" fill-opacity="0.55"/><circle cx="208.6" cy="245.6" r="1.4" fill="#fffaf0" fill-opacity="0.55"/><circle cx="311.1" cy="155.8" r="0.9" fill="#fffaf0" fill-opacity="0.55"/><circle cx="9.5" cy="71.3" r="1.5" fill="#fffaf0" fill-opacity="0.55"/><circle cx="196.5" cy="194.6" r="0.7" fill="#fffaf0" fill-opacity="0.55"/><circle cx="399.9" cy="404.4" r="1.5" fill="#fffaf0" fill-opacity="0.55"/><circle cx="259.7" cy="341.4" r="1.3" fill="#fffaf0" fill-opacity="0.55"/><circle cx="369.5" cy="364.2" r="1" fill="#fffaf0" fill-opacity="0.55"/><circle cx="158.1" cy="42.9" r="0.7" fill="#fffaf0" fill-opacity="0.55"/><circle cx="302.7" cy="312.9" r="1" fill="#fffaf0" fill-opacity="0.55"/><circle cx="284.2" cy="186" r="1" fill="#fffaf0" fill-opacity="0.55"/><circle cx="332.4" cy="242.4" r="0.7" fill="#fffaf0" fill-opacity="0.55"/><circle cx="4.3" cy="229" r="1.4" fill="#fffaf0" fill-opacity="0.55"/><circle cx="60.7" cy="339.5" r="1.5" fill="#fffaf0" fill-opacity="0.55"/><circle cx="188.4" cy="172.8" r="0.9" fill="#fffaf0" fill-opacity="0.55"/><circle cx="185.3" cy="396.7" r="0.7" fill="#fffaf0" fill-opacity="0.55"/><circle cx="180.7" cy="267.6" r="1.4" fill="#fffaf0" fill-opacity="0.55"/><circle cx="175.3" cy="55" r="1" fill="#fffaf0" fill-opacity="0.55"/><circle cx="111.8" cy="150" r="1.5" fill="#fffaf0" fill-opacity="0.55"/><circle cx="390.4" cy="328.4" r="1.4" fill="#fffaf0" fill-opacity="0.55"/><circle cx="187.8" cy="275.3" r="0.9" fill="#fffaf0" fill-opacity="0.55"/><circle cx="355.2" cy="275.1" r="1" fill="#fffaf0" fill-opacity="0.55"/></svg>