<svg xmlns="http://www.w3.org/2000/svg" viewBox="0 0 1240 620" width="1240" height="620"><defs><pattern id="ht" width="14" height="14" patternUnits="userSpaceOnUse" patternTransform="rotate(45)"><circle cx="7" cy="7" r="2.6" fill="#12203a"/></pattern><pattern id="hs" width="9" height="9" patternUnits="userSpaceOnUse" patternTransform="rotate(45)"><circle cx="4.5" cy="4.5" r="1.5" fill="#12203a"/></pattern><pattern id="hl" width="14" height="14" patternUnits="userSpaceOnUse" patternTransform="rotate(45)"><circle cx="7" cy="7" r="2.4" fill="#fff6df"/></pattern><path id="sc-map" d="M976,-4L988,-3L1000,-3L1012,-2L1024,-1L1036,0L1048,1L1060,1L1072,-1L1084,-1L1096,1L1108,3L1120,5L1131,6L1143,8L1155,10L1167,12L1179,12L1191,14L1203,14L1215,15L1227,15L1239,17L1251,17L1263,17L1275,17L1274,29L1273,41L1272,53L1272,65L1272,77L1271,89L1269,101L1268,113L1267,125L1267,137L1267,149L1266,161L1265,173L1266,185L1263,197L1261,208L1260,220L1257,232L1258,244L1256,256L1255,268L1254,280L1253,292L1253,304L1252,316L1251,328L1252,340L1252,352L1251,364L1250,376L1250,388L1248,400L1236,398L1224,398L1212,396L1200,396L1188,397L1176,396L1164,396L1152,395L1140,395L1128,395L1116,392L1105,390L1093,390L1081,389L1069,389L1057,384L1045,386L1033,385L1021,384L1009,384L997,383L985,381L973,381L961,380L949,379L949,367L951,355L951,343L951,331L953,319L954,307L956,295L957,283L957,271L959,259L963,248L962,236L963,224L965,212L965,200L965,188L967,176L964,164L966,152L966,140L965,128L965,116L965,104L967,92L968,80L970,68L972,56L974,44L975,32L975,20L976,8Z"/><path id="sc-sun" d="M962,250L960,261L960,272L957,282L953,293L949,303L943,312L936,320L929,329L922,337L912,344L903,349L893,354L883,357L872,360L861,361L850,363L839,361L828,360L818,357L807,354L798,347L789,342L780,336L771,329L765,320L758,312L752,302L747,293L744,282L740,272L740,261L738,250L739,239L743,229L743,218L747,207L752,198L758,189L764,180L771,171L779,164L788,157L798,152L807,147L818,144L828,140L839,139L850,138L861,141L872,141L882,144L893,147L902,152L913,156L920,164L929,171L936,180L943,188L948,197L953,207L955,218L958,228L961,239Z"/><path id="sc-far" d="M468,470L468,458L469,447L469,435L469,423L470,412L470,400L483,400L495,401L508,401L521,400L520,387L520,373L520,361L532,360L543,360L555,360L566,360L566,372L565,384L565,396L566,408L566,420L577,421L589,421L601,420L601,409L601,398L600,386L600,375L599,364L600,353L599,341L600,329L613,330L613,341L613,353L612,364L612,375L613,386L613,398L612,409L612,421L625,420L637,420L650,420L662,420L675,420L687,420L700,420L701,408L701,396L700,385L712,384L723,384L735,384L747,384L758,385L769,384L769,396L769,407L769,419L770,432L782,431L794,433L807,431L819,431L831,431L843,431L856,431L868,430L880,429L892,429L904,428L917,429L929,429L941,429L953,429L966,429L978,428L988,430L988,418L989,407L989,395L989,384L990,370L1003,371L1015,372L1028,372L1040,372L1040,384L1040,396L1040,408L1040,420L1052,420L1063,421L1075,421L1087,421L1098,421L1111,420L1111,406L1110,393L1122,393L1133,392L1145,392L1157,392L1168,392L1180,392L1180,403L1180,414L1180,425L1180,437L1181,448L1181,459L1180,471L1168,470L1156,469L1144,469L1132,469L1120,469L1108,469L1096,468L1084,469L1072,469L1060,470L1048,469L1036,470L1024,471L1012,471L999,470L987,470L975,471L963,470L951,471L939,471L927,471L915,471L903,472L891,472L879,472L867,471L855,471L843,471L831,471L819,471L807,472L795,471L783,471L771,471L759,471L747,472L735,471L723,471L711,471L699,471L687,469L675,470L663,471L651,472L638,471L626,471L614,471L602,471L590,471L578,472L566,471L554,472L542,472L530,472L518,472L506,472L494,472L482,472Z"/><path id="sc-hall" d="M841,520L841,508L841,496L843,484L841,473L841,461L840,449L841,437L843,425L841,413L841,401L841,389L841,378L841,366L840,354L840,342L840,330L853,330L867,331L881,330L881,318L882,305L880,293L880,280L891,279L903,279L914,279L926,279L937,279L949,279L961,280L961,292L961,304L960,316L960,328L960,340L972,340L983,341L995,340L1007,340L1018,340L1030,340L1030,327L1031,313L1030,301L1042,300L1054,300L1066,300L1078,300L1090,300L1090,311L1090,323L1091,334L1090,346L1091,357L1091,369L1090,379L1102,380L1114,379L1126,379L1138,378L1152,380L1152,392L1151,403L1151,415L1151,427L1151,438L1151,450L1151,462L1151,473L1151,485L1151,497L1150,508L1150,520L1138,520L1126,520L1114,518L1102,520L1090,520L1078,520L1067,520L1055,517L1043,519L1031,519L1019,519L1007,520L995,520L983,520L971,520L959,520L947,520L935,521L923,520L912,520L900,520L888,520L876,519L864,519L852,519Z"/><path id="sc-works" d="M453,520L453,509L453,497L453,486L453,474L453,463L456,451L453,441L462,435L472,429L481,423L491,417L499,410L500,420L501,430L500,440L510,434L519,427L528,421L537,414L549,410L549,420L549,430L547,439L557,433L567,427L577,422L586,416L596,410L594,420L596,430L596,440L607,441L619,442L631,440L630,428L631,417L631,405L631,393L631,382L632,370L631,358L632,347L632,335L631,323L631,312L630,301L642,301L654,300L666,301L678,300L690,300L690,288L690,275L690,263L690,250L701,249L712,250L722,249L733,249L744,250L744,261L744,273L743,284L744,296L744,307L744,319L744,330L757,329L769,330L771,319L772,308L772,296L773,285L774,274L776,262L777,251L777,239L783,227L790,213L800,213L810,213L820,214L826,227L831,240L833,251L835,263L836,274L839,285L840,296L842,308L844,319L846,330L846,342L845,354L845,366L845,378L845,389L845,401L847,413L847,425L845,437L847,449L847,461L845,473L847,484L846,496L846,508L846,520L834,520L822,520L810,520L798,521L786,520L774,520L762,519L750,520L739,520L727,520L715,519L703,519L691,519L679,519L667,519L655,519L643,519L631,521L619,521L607,521L595,521L583,522L571,522L559,522L548,521L536,521L524,520L512,520L500,520L488,519L476,519L464,519Z"/><path id="sc-brick" d="M962,346L972,346L982,346L992,347L1002,346L1012,346L1022,346L1032,346L1031,356L1032,366L1031,376L1031,386L1031,396L1031,406L1031,416L1032,426L1031,436L1032,446L1032,456L1032,466L1022,466L1012,466L1002,466L992,466L982,466L972,466L962,466L962,456L962,446L962,436L963,426L962,416L962,406L962,396L962,386L963,376L963,366L963,356Z"/><path id="sc-cream" d="M398,516L409,513L419,509L429,506L440,502L449,498L460,494L470,491L481,488L491,484L501,481L511,477L520,472L531,475L543,477L554,480L566,482L578,485L590,486L601,490L613,492L624,495L637,496L648,497L660,501L673,497L687,493L700,490L713,487L727,484L740,481L753,476L766,472L779,469L793,466L806,463L820,460L834,463L847,465L860,467L874,469L887,472L901,473L914,476L927,479L940,482L954,485L967,488L980,491L991,488L1001,485L1012,483L1023,481L1034,477L1044,474L1055,471L1066,469L1077,466L1089,468L1099,463L1110,460L1122,463L1135,465L1147,468L1160,470L1172,473L1185,475L1197,476L1210,478L1223,477L1236,479L1248,481L1260,486L1260,640L400,640Z"/><path id="sc-yard" d="M440,539L453,537L467,536L480,534L493,533L507,531L520,529L533,528L547,526L560,524L573,522L587,522L600,521L612,521L624,522L636,524L648,525L660,525L672,526L684,527L696,528L708,528L720,530L732,531L744,531L756,532L768,532L780,533L792,532L804,530L816,529L828,528L840,526L852,525L864,524L876,524L888,523L900,521L912,520L924,519L936,518L948,516L960,515L972,518L985,517L998,518L1010,518L1022,519L1035,520L1047,521L1060,523L1072,523L1085,523L1097,524L1110,526L1122,526L1135,526L1147,527L1160,527L1172,528L1185,528L1197,528L1210,530L1222,530L1235,530L1247,530L1260,530L1260,640L440,640Z"/><path id="sc-water" d="M430,568L446,567L462,566L478,566L493,567L509,564L525,564L541,564L557,564L573,565L588,565L604,565L620,566L636,566L652,566L668,566L684,566L699,566L715,566L731,566L747,566L763,567L779,566L795,565L810,567L826,568L842,567L858,567L874,566L890,567L905,567L921,566L937,565L953,565L969,566L985,566L1001,566L1016,565L1032,566L1048,568L1064,566L1080,566L1096,566L1112,566L1127,566L1143,567L1159,567L1175,568L1191,567L1207,566L1222,567L1238,568L1254,567L1269,566L1270,582L1269,598L1268,614L1270,630L1270,645L1254,645L1238,645L1222,644L1207,645L1191,645L1175,646L1159,644L1143,645L1127,646L1112,646L1096,644L1080,646L1064,644L1048,647L1032,646L1016,647L1001,647L985,647L969,647L953,647L937,647L921,647L905,647L890,647L874,646L858,646L842,646L826,646L810,647L795,647L779,646L763,645L747,646L731,646L715,647L699,647L684,647L668,648L652,648L636,647L620,648L604,647L588,646L573,646L557,646L541,647L525,648L509,647L493,648L478,647L462,648L446,648L428,646L429,630L430,614L431,598L431,582Z"/><path id="sc-kraft" d="M-20,572L-6,571L8,571L22,571L35,570L49,569L63,569L77,569L91,569L105,566L119,564L132,563L146,560L160,560L174,559L188,564L203,563L217,564L231,565L245,567L259,568L274,570L288,571L302,572L316,574L330,575L344,574L358,574L372,573L386,570L400,572L414,569L428,568L442,568L456,567L469,566L471,581L472,596L474,611L476,626L480,638L466,638L452,638L438,640L424,642L411,641L397,640L383,641L369,642L355,642L341,642L327,643L313,642L299,641L286,640L272,640L258,642L244,642L230,641L216,640L202,641L188,641L174,642L161,641L147,641L133,641L119,642L105,642L91,642L77,641L63,639L49,640L36,639L22,638L8,639L-6,641L-20,640L-17,627L-20,614L-21,600L-22,587Z"/></defs><use href="#sc-map" fill="#2a2218" opacity="0.2" transform="translate(3 6)"/><use href="#sc-map" fill="#fffaf0" stroke="#fffaf0" stroke-width="5" stroke-linejoin="round"/><use href="#sc-map" fill="#ebe2cc"/><g transform="rotate(4 1100 200)"><path d="M980,20L980,380M1004,20L1004,380M1028,20L1028,380M1052,20L1052,380M1076,20L1076,380M1100,20L1100,380M1124,20L1124,380M1148,20L1148,380M1172,20L1172,380M1196,20L1196,380M1220,20L1220,380M968,30L1250,30M968,54L1250,54M968,78L1250,78M968,102L1250,102M968,126L1250,126M968,150L1250,150M968,174L1250,174M968,198L1250,198M968,222L1250,222M968,246L1250,246M968,270L1250,270M968,294L1250,294M968,318L1250,318M968,342L1250,342M968,366L1250,366" fill="none" stroke="#63799e" stroke-width="1.1" opacity="0.3"/><path d="M970,110C981.7,105 1015,78.3 1040,80C1065,81.7 1085,118.3 1120,120C1155,121.7 1228.3,95 1250,90" fill="none" stroke="#8a7f68" stroke-width="1.8" opacity="0.5"/><path d="M970,180C983.3,175 1021.7,147.3 1050,150C1078.3,152.7 1106.7,194.3 1140,196C1173.3,197.7 1231.7,166 1250,160" fill="none" stroke="#8a7f68" stroke-width="1.8" opacity="0.5"/><path d="M980,330C990,321.7 1021.7,293.3 1040,280C1058.3,266.7 1071.7,265 1090,250C1108.3,235 1131.7,211.7 1150,190C1168.3,168.3 1185,140 1200,120C1215,100 1233.3,78.3 1240,70" fill="none" stroke="#353d52" stroke-width="3.5" stroke-dasharray="10 7"/><path d="M1150,190 m-9,0 a9,9 0 1 0 18,0 a9,9 0 1 0 -18,0" fill="none" stroke="#b0502c" stroke-width="3.5"/><rect x="1020" y="250" width="40" height="26" fill="#6c7fa1" opacity="0.5"/><rect x="1170" y="250" width="30" height="38" fill="#6c7fa1" opacity="0.5"/></g><use href="#sc-sun" fill="#2a2218" opacity="0.2" transform="translate(3 6)"/><use href="#sc-sun" fill="#c0613f"/><use href="#sc-sun" fill="url(#hl)" opacity="0.2"/><use href="#sc-far" fill="#2a2218" opacity="0.2" transform="translate(3 6)"/><use href="#sc-far" fill="#fffaf0" stroke="#fffaf0" stroke-width="4" stroke-linejoin="round"/><use href="#sc-far" fill="#6c7fa1"/><use href="#sc-far" fill="url(#hs)" opacity="0.2"/><rect x="636" y="132" width="30" height="340" fill="#262c3b" stroke="#12203a" stroke-width="2"/><rect x="630" y="124" width="42" height="14" fill="#262c3b" stroke="#12203a" stroke-width="2"/><rect x="636" y="170" width="30" height="7" fill="#b0502c"/><rect x="636" y="186" width="30" height="5" fill="#b0502c"/><rect x="884" y="168" width="24" height="300" fill="#353d52" stroke="#12203a" stroke-width="2"/><rect x="884" y="200" width="24" height="6" fill="#b0502c"/><use href="#sc-hall" fill="#2a2218" opacity="0.2" transform="translate(3 6)"/><use href="#sc-hall" fill="#fffaf0" stroke="#fffaf0" stroke-width="4" stroke-linejoin="round"/><use href="#sc-hall" fill="#3a4764" stroke="#12203a" stroke-width="2"/><use href="#sc-hall" fill="url(#hs)" opacity="0.2"/><use href="#sc-works" fill="#2a2218" opacity="0.2" transform="translate(3 6)"/><use href="#sc-works" fill="#fffaf0" stroke="#fffaf0" stroke-width="4" stroke-linejoin="round"/><use href="#sc-works" fill="#262c3b" stroke="#12203a" stroke-width="2"/><use href="#sc-works" fill="url(#ht)" opacity="0.1"/><use href="#sc-brick" fill="#2a2218" opacity="0.1" transform="translate(1.2 2.4)"/><use href="#sc-brick" fill="#b0502c"/><use href="#sc-brick" fill="url(#hs)" opacity="0.3"/><path d="M782,270L828,270M780,300L832,300" fill="none" stroke="#56607a" stroke-width="5"/><g><rect x="648" y="330" width="11" height="14" fill="#d99a3e" opacity="0.9"/><rect x="668" y="330" width="11" height="14" fill="#d99a3e" opacity="0.9"/><rect x="648" y="356" width="11" height="14" fill="#d99a3e" opacity="0.9"/><rect x="700" y="280" width="11" height="14" fill="#d99a3e" opacity="0.9"/><rect x="720" y="280" width="11" height="14" fill="#d99a3e" opacity="0.9"/><rect x="904" y="360" width="11" height="14" fill="#d99a3e" opacity="0.9"/><rect x="924" y="360" width="11" height="14" fill="#d99a3e" opacity="0.9"/><rect x="904" y="386" width="11" height="14" fill="#d99a3e" opacity="0.9"/><rect x="1046" y="330" width="11" height="14" fill="#d99a3e" opacity="0.9"/><rect x="1066" y="330" width="11" height="14" fill="#d99a3e" opacity="0.9"/><rect x="1046" y="356" width="11" height="14" fill="#d99a3e" opacity="0.9"/><rect x="974" y="368" width="11" height="14" fill="#d99a3e" opacity="0.9"/><rect x="1000" y="368" width="11" height="14" fill="#d99a3e" opacity="0.9"/><rect x="974" y="396" width="11" height="14" fill="#d99a3e" opacity="0.9"/><rect x="1000" y="396" width="11" height="14" fill="#d99a3e" opacity="0.9"/></g><path d="M440,506L800,344M450,526L806,364M440,506L479.7,512.5M440,506L450,526M470,492.5L509.3,499M470,492.5L480,512.5M500,479L539,485.5M500,479L510,499M530,465.5L568.7,472M530,465.5L540,485.5M560,452L598.3,458.5M560,452L570,472M590,438.5L628,445M590,438.5L600,458.5M620,425L657.7,431.5M620,425L630,445M650,411.5L687.3,418M650,411.5L660,431.5M680,398L717,404.5M680,398L690,418M710,384.5L746.7,391M710,384.5L720,404.5M740,371L776.3,377.5M740,371L750,391M770,357.5L806,364M770,357.5L780,377.5" fill="none" stroke="#8590a6" stroke-width="3.5" stroke-linecap="round"/><path d="M520,474L520,560M640,420L640,540" fill="none" stroke="#8590a6" stroke-width="5"/><use href="#sc-cream" fill="#2a2218" opacity="0.2" transform="translate(3 6)"/><use href="#sc-cream" fill="#fffaf0" stroke="#fffaf0" stroke-width="4" stroke-linejoin="round"/><use href="#sc-cream" fill="#e4d8bf"/><use href="#sc-cream" fill="url(#hs)" opacity="0.1"/><use href="#sc-yard" fill="#2a2218" opacity="0.2" transform="translate(3 6)"/><use href="#sc-yard" fill="#fffaf0" stroke="#fffaf0" stroke-width="3" stroke-linejoin="round"/><use href="#sc-yard" fill="#353d52"/><use href="#sc-yard" fill="url(#ht)" opacity="0.1"/><path d="M812,486C808.3,492.7 802.3,514.3 790,526C777.7,537.7 754.7,545.3 738,556C721.3,566.7 698,584.3 690,590" fill="none" stroke="#b0502c" stroke-width="22" stroke-linecap="round"/><path d="M812,486C808.3,492.7 802.3,514.3 790,526C777.7,537.7 754.7,545.3 738,556C721.3,566.7 698,584.3 690,590" fill="none" stroke="#d99a3e" stroke-width="10" stroke-linecap="round"/><path d="M810,492C807,497.3 801.7,514.7 792,524C782.3,533.3 758.7,544 752,548" fill="none" stroke="#f6d487" stroke-width="3.5" stroke-linecap="round"/><use href="#sc-water" fill="#2a2218" opacity="0.2" transform="translate(3 6)"/><use href="#sc-water" fill="#fffaf0" stroke="#fffaf0" stroke-width="3" stroke-linejoin="round"/><use href="#sc-water" fill="#26324c"/><use href="#sc-water" fill="url(#hs)" opacity="0.2"/><path d="M640,588L720,586M760,596L800,595M900,588L980,587M1060,600L1130,598" fill="none" stroke="#d99a3e" stroke-width="3.5" stroke-linecap="round" opacity="0.8"/><path d="M520,600L580,598M1150,584L1210,583" fill="none" stroke="#fffaf0" stroke-width="2.5" opacity="0.6"/><use href="#sc-kraft" fill="#2a2218" opacity="0.2" transform="translate(3 6)"/><use href="#sc-kraft" fill="#fffaf0" stroke="#fffaf0" stroke-width="5" stroke-linejoin="round"/><use href="#sc-kraft" fill="#d6c29e"/><use href="#sc-kraft" fill="url(#hs)" opacity="0.1"/><polygon points="1214,370 1201.2,437.5 1209.1,393 1189.5,487.5 1204.7,443 1177.8,537.5 1200.3,493 1210.5,540 1217.5,540 1227.7,493 1250.2,537.5 1223.3,443 1238.5,487.5 1218.9,393 1226.8,437.5" fill="#1d2e2c"/></svg>