<svg xmlns="http://www.w3.org/2000/svg" viewBox="0 0 480 620" width="480" height="620" aria-hidden="true"><rect x="10" y="14" width="460" height="600" rx="6" fill="#0D1735" opacity="0.18"/><rect x="4" y="4" width="460" height="600" rx="6" fill="#FBF7EF" stroke="#0D1735" stroke-width="3"/><path d="M24 60H456" stroke="#63799E" stroke-opacity="0.2" stroke-width="2"/><path d="M24 91H456" stroke="#63799E" stroke-opacity="0.2" stroke-width="2"/><path d="M24 122H456" stroke="#63799E" stroke-opacity="0.2" stroke-width="2"/><path d="M24 153H456" stroke="#63799E" stroke-opacity="0.2" stroke-width="2"/><path d="M24 184H456" stroke="#63799E" stroke-opacity="0.2" stroke-width="2"/><path d="M24 215H456" stroke="#63799E" stroke-opacity="0.2" stroke-width="2"/><path d="M24 246H456" stroke="#63799E" stroke-opacity="0.2" stroke-width="2"/><path d="M24 277H456" stroke="#63799E" stroke-opacity="0.2" stroke-width="2"/><path d="M24 308H456" stroke="#63799E" stroke-opacity="0.2" stroke-width="2"/><path d="M24 339H456" stroke="#63799E" stroke-opacity="0.2" stroke-width="2"/><path d="M24 370H456" stroke="#63799E" stroke-opacity="0.2" stroke-width="2"/><path d="M24 401H456" stroke="#63799E" stroke-opacity="0.2" stroke-width="2"/><path d="M24 432H456" stroke="#63799E" stroke-opacity="0.2" stroke-width="2"/><path d="M24 463H456" stroke="#63799E" stroke-opacity="0.2" stroke-width="2"/><path d="M24 494H456" stroke="#63799E" stroke-opacity="0.2" stroke-width="2"/><path d="M24 525H456" stroke="#63799E" stroke-opacity="0.2" stroke-width="2"/><path d="M24 556H456" stroke="#63799E" stroke-opacity="0.2" stroke-width="2"/><path d="M56 4V604" stroke="#B64927" stroke-opacity="0.45" stroke-width="3"/><rect x="104" y="40" width="210" height="18" rx="4" fill="#214F43"/><rect x="104" y="72" width="130" height="9" rx="4.5" fill="#5A6178" opacity="0.6"/><circle cx="78" cy="150" r="13" fill="none" stroke="#2E3854" stroke-width="3"/><rect x="104" y="145" width="240" height="9" rx="4.5" fill="#2E3854" opacity="0.55"/><rect x="104" y="166" width="300" height="3" fill="#63799E" opacity="0.5"/><path d="M392 148l9 10 18-22" fill="none" stroke="#B64927" stroke-width="6" stroke-linecap="round" stroke-linejoin="round"/><circle cx="78" cy="212" r="13" fill="none" stroke="#2E3854" stroke-width="3"/><rect x="104" y="207" width="240" height="9" rx="4.5" fill="#2E3854" opacity="0.55"/><rect x="104" y="228" width="300" height="3" fill="#63799E" opacity="0.5"/><path d="M392 210l9 10 18-22" fill="none" stroke="#B64927" stroke-width="6" stroke-linecap="round" stroke-linejoin="round"/><circle cx="78" cy="274" r="13" fill="none" stroke="#2E3854" stroke-width="3"/><rect x="104" y="269" width="170" height="9" rx="4.5" fill="#2E3854" opacity="0.55"/><rect x="104" y="290" width="300" height="3" fill="#63799E" opacity="0.5"/><path d="M392 272l9 10 18-22" fill="none" stroke="#B64927" stroke-width="6" stroke-linecap="round" stroke-linejoin="round"/><circle cx="78" cy="336" r="13" fill="none" stroke="#2E3854" stroke-width="3"/><rect x="104" y="331" width="240" height="9" rx="4.5" fill="#2E3854" opacity="0.55"/><rect x="104" y="352" width="300" height="3" fill="#63799E" opacity="0.5"/><path d="M392 334l9 10 18-22" fill="none" stroke="#B64927" stroke-width="6" stroke-linecap="round" stroke-linejoin="round"/><circle cx="78" cy="398" r="13" fill="none" stroke="#2E3854" stroke-width="3"/><rect x="104" y="393" width="240" height="9" rx="4.5" fill="#2E3854" opacity="0.55"/><rect x="104" y="414" width="300" height="3" fill="#63799E" opacity="0.5"/><circle cx="78" cy="460" r="13" fill="none" stroke="#2E3854" stroke-width="3"/><rect x="104" y="455" width="170" height="9" rx="4.5" fill="#2E3854" opacity="0.55"/><rect x="104" y="476" width="300" height="3" fill="#63799E" opacity="0.5"/><g fill="none" stroke="#2E3854" stroke-width="3" stroke-linecap="round"><path d="M330 520c20-26 52-26 70 0s48 26 60 0" /><circle cx="120" cy="540" r="22"/><path d="M120 518v44M98 540h44"/><path d="M190 560l26-44 26 44z"/></g><g transform="translate(-46 40) rotate(-38 400 90)"><rect x="330" y="80" width="150" height="20" rx="3" fill="#EEDCA9" stroke="#0D1735" stroke-width="3"/><path d="M480 80l26 10-26 10z" fill="#D7BE93" stroke="#0D1735" stroke-width="3" stroke-linejoin="round"/><rect x="316" y="80" width="16" height="20" rx="2" fill="#B64927" stroke="#0D1735" stroke-width="3"/></g></svg>
